<svg width="261.629" height="253.852" viewBox="0 0 69.223 67.165" xmlns="http://www.w3.org/2000/svg">
    <path style="fill:#fff;fill-opacity:1;stroke-width:1.1" d="M23.043 106.98v67.165h69.223V106.98z" transform="translate(-23.043 -106.98)"/>
    <path style="fill:#eff;fill-opacity:1;stroke-width:1.1" d="M69.213 114.918v67.164h69.222v-67.164zm34.892 2.993a31.337 30.87 0 0 1 31.337 30.87 31.337 30.87 0 0 1-31.337 30.87 31.337 30.87 0 0 1-31.338-30.87 31.337 30.87 0 0 1 31.338-30.87z" transform="translate(-69.213 -114.918)"/>
    <path style="display:inline;fill:#60b3d7;fill-opacity:1;stroke-width:1" d="M42.283 59.345c-2.692.056-5.311.05-5.82-.012-.51-.062-2.08-.287-3.49-.5-1.41-.214-3.672-.745-5.027-1.18-1.355-.435-2.74-.985-3.078-1.223-.338-.238-.71-.688-.829-1-.118-.311-.105-.775.028-1.029.133-.254.71-.7 1.281-.992.572-.291 1.433-.53 1.915-.53.734 0 .96.154 1.386.945.28.52.932 1.278 1.449 1.684a14.19 14.19 0 0 0 1.999 1.27c.582.292 1.891.75 2.91 1.018 1.394.367 2.835.49 5.82.496 3.368.007 4.293-.084 6.104-.601 1.174-.336 2.756-.966 3.516-1.4.97-.553 1.658-1.22 2.306-2.233.754-1.18 1.058-1.443 1.657-1.443.404 0 1.353.308 2.11.685.972.485 1.426.886 1.547 1.368.139.554-.001.839-.752 1.527-.531.487-1.688 1.1-2.726 1.446-.992.33-3.065.825-4.607 1.101-1.847.33-4.474.536-7.699.603z" transform="translate(-6.829 -10.196)"/>
    <path style="fill:#3c92c0;fill-opacity:1;stroke-width:1.1" d="M66.026 41.12c-.596.243-1.786.728-2.938 1.142a39.7 39.7 0 0 1-3.098.975c-.832.22-1.384.32-1.88.375-.496.055-.937.066-1.84.066-.905 0-2.272-.01-2.983-.016-.712-.004-.769-.003-.85.15a4.71 4.71 0 0 0-.25.679c-.066.218-.091.349-.095.459-.004.11.014.2.163.28.149.08.43.153 1.318.342.889.19 2.385.495 3.697.794 1.311.3 2.438.592 3.544.875 1.106.284 2.191.559 3.031.517a3.26 3.26 0 0 0 1.762-.636c.327-.236.388-.35.453-.605.065-.257.136-.656.174-1.018.038-.361.043-.685.093-1.033.05-.347.143-.72.198-1.191.055-.472.07-1.043.08-1.459.01-.416.013-.677.015-.807.001-.13.001-.13-.594.112zM16.04 41.253c.596.243 1.787.728 2.939 1.141a39.7 39.7 0 0 0 3.097.976c.833.22 1.384.32 1.88.374.496.056.937.067 1.841.067.904 0 2.271-.011 2.983-.016.712-.005.768-.004.849.15.08.154.186.46.251.678.065.218.09.349.095.459.003.11-.014.2-.163.28-.15.081-.43.153-1.318.342-.89.19-2.386.495-3.697.794-1.312.3-2.438.592-3.544.875-1.106.284-2.192.559-3.032.517a3.26 3.26 0 0 1-1.761-.636c-.328-.236-.388-.349-.454-.605a7.923 7.923 0 0 1-.173-1.017c-.038-.362-.044-.685-.094-1.033-.05-.348-.143-.72-.198-1.192a16.96 16.96 0 0 1-.08-1.459c-.009-.416-.012-.676-.014-.807-.002-.13-.002-.13.594.112z" transform="translate(-6.829 -10.196)"/>
    <path style="display:inline;fill:#021834;fill-opacity:1;stroke-width:1" d="M36.196 57.037c-2.473-.472-4.368-1.32-5.456-2.442l-.894-.922-.133-6.535-.132-6.534-2.245-.078c-1.916-.066-4.551.205-8.747.9l-.938.156.181-2.106c.238-2.764.827-4.726 2.242-7.47 1.793-3.476 4.858-6.738 8.644-9.203 4.05-2.636 7.606-3.633 12.902-3.616 3.604.01 3.984.062 6.276.851 4.835 1.664 7.805 3.532 10.942 6.882 3.38 3.61 5.533 8.107 5.949 12.427.218 2.265.61 2.124-4.24 1.52-1.74-.217-4.145-.395-5.344-.395h-2.18l-.08 6.436c-.077 6.338-.088 6.45-.728 7.383-.826 1.206-1.757 1.749-4.093 2.39-2.444.67-9.223.872-11.926.356zm5.4-3.6c.159-.8.396-1.992.528-2.646a39.49 39.49 0 0 0 .37-2.2c.072-.556.195-1.074.273-1.153.08-.079 1.161-.16 2.405-.181 1.534-.026 2.302-.145 2.389-.369.286-.74.673-.257.673.843 0 .645.13 1.508.287 1.918l.286.745.496-.926c.273-.51.502-1.356.508-1.881.009-.799.206-1.121 1.201-1.97.804-.685 1.191-1.223 1.191-1.656 0-.722.084-.727-3.043.205-1.502.447-6.667 1.14-6.952.931-.04-.03.048-.376.198-.77.15-.393.281-1.391.293-2.219.011-.827.08-1.355.154-1.173.074.182.34.33.59.33.797 0 1.45-.695 1.897-2.021l.434-1.286.196 2.58c.108 1.418.29 2.637.405 2.707.114.071.565-.05 1.003-.268.746-.372.808-.523 1.01-2.443l.215-2.046.17 1.81c.163 1.744.617 2.564 1.134 2.046.123-.122.333-1.1.467-2.172s.34-2.485.457-3.14l.213-1.19.198 1.67c.18 1.52.25 1.662.778 1.587.555-.079.583-.218.655-3.224.087-3.665-.067-4.05-2.01-5.035-2.706-1.372-7.654-2.2-11.263-1.885-3.825.334-8.46 2.007-9.155 3.306-.389.727-.349 6.438.049 6.835.52.52.868.368 1.245-.542l.356-.86.216 1.058c.119.582.223 1.55.231 2.15.018 1.285.577 1.944 1.206 1.422.27-.224.402-.849.414-1.95.02-1.912.426-1.31.533.788.037.712.17 1.503.296 1.757.345.693 1.006.575 1.006-.18 0-.353.176-.818.392-1.034.215-.215.47-1.057.565-1.87.17-1.438.63-2.082.631-.884.001.725.912 2.275 1.46 2.485.219.085.556.022.75-.138.562-.467.7-.071.7 2.02v1.963l-.992-.145a82.926 82.926 0 0 0-2.712-.32c-.946-.098-2.494-.44-3.44-.76-2.618-.888-2.504-.885-2.597-.08-.068.593.09.828.86 1.283.903.533.943.62.947 2.052.002.822.117 1.674.255 1.892.413.652 1.1-.274 1.261-1.7.115-1.02.216-1.199.607-1.075.837.266 3.537.655 4.554.657.546 0 .996.031 1 .068.004.036.119 1.583.254 3.438.21 2.874.6 4.724.926 4.39.047-.05.217-.744.376-1.545zM26.224 36.833c-.117-.612-3.505-1.38-3.983-.902-.46.46.108.897 1.448 1.115 2.096.34 2.632.296 2.535-.213zm33.85-.097c.674-.25.782-.708.218-.925-.208-.08-1.19.014-2.18.207-1.362.266-1.825.47-1.894.83-.083.437.057.463 1.585.294.922-.101 1.944-.284 2.271-.406zm-32.526-4.013c.097-.5-2.429-1.898-3.02-1.671-.728.28-.349.854 1.018 1.542 1.51.76 1.875.784 2.002.129zm29.505-.197c1.346-.595 1.694-.963 1.292-1.365-.35-.35-3.496 1.037-3.496 1.54 0 .512.795.448 2.204-.175zm-26.281-3.53c0-.2-.548-.869-1.218-1.486-1.078-.995-1.262-1.077-1.611-.727-.35.35-.264.517.754 1.478 1.152 1.087 2.075 1.414 2.075.734zm22.952-.719c1.237-1.182 1.337-1.426.689-1.675-.5-.192-2.86 2.082-2.599 2.505.288.465.78.252 1.91-.83zm-19.1-2.174c.157-.408-.542-2.186-.96-2.445-.587-.362-.868.338-.505 1.254.587 1.48 1.173 1.955 1.466 1.191zm14.511-.875c.726-1.298.7-1.69-.115-1.69-.374 0-.602.325-.877 1.256-.608 2.053-.049 2.297.992.434zm-7.25-.942c0-.115.297-.284.66-.375.86-.216.842-.583-.044-.92-.388-.147-.856-.472-1.04-.72-.311-.424-.345-.422-.523.04-.105.27-.552.643-.992.828l-.8.337.806.417c.444.23.883.69.977 1.023.166.593.179.595.563.092.216-.282.392-.607.392-.722z" transform="translate(-6.829 -10.196)"/>
    <path style="fill:#021834;fill-opacity:1;stroke-width:1.1" d="M41.44 12.91a31.337 30.87 0 0 0-31.337 30.869 31.337 30.87 0 0 0 31.337 30.87 31.337 30.87 0 0 0 31.337-30.87 31.337 30.87 0 0 0-31.337-30.87Zm0 4.17a27.104 26.7 0 0 1 27.104 26.699A27.104 26.7 0 0 1 41.44 70.478a27.104 26.7 0 0 1-27.104-26.7A27.104 26.7 0 0 1 41.44 17.08Z" transform="translate(-6.829 -10.196)"/>
    <path style="fill:#fff;fill-opacity:0;stroke-width:1.1" fill="none" d="M146.05 111.654h46.302v48.683H146.05z" transform="translate(-23.043 -106.98)"/>
    <path style="fill:#f0f;fill-opacity:0;stroke-width:4.15748" d="M640.95 662.1c-37.522-7.143-69.052-30.549-85.496-63.466-8.993-18.003-12.446-34.473-11.661-55.634 1.51-40.771 22.42-75.358 58.207-96.28 36.025-21.06 83.025-20.933 119.5.325 36.078 21.027 58.012 58.785 57.996 99.836-.008 19.356-4.09 36.064-13.102 53.619-14.976 29.174-42.667 51.027-75.6 59.66-8.15 2.137-12.564 2.628-26.294 2.925-11.058.24-18.825-.085-23.55-.985z" transform="matrix(.26458 0 0 .26458 -23.043 -106.98)" fill="none"/>
    <path style="fill:#f0f;fill-opacity:0;stroke-width:4.15748" d="M640.95 662.1c-37.522-7.143-69.052-30.549-85.496-63.466-8.993-18.003-12.446-34.473-11.661-55.634 1.51-40.771 22.42-75.358 58.207-96.28 36.025-21.06 83.025-20.933 119.5.325 36.078 21.027 58.012 58.785 57.996 99.836-.008 19.356-4.09 36.064-13.102 53.619-14.976 29.174-42.667 51.027-75.6 59.66-8.15 2.137-12.564 2.628-26.294 2.925-11.058.24-18.825-.085-23.55-.985z" transform="matrix(.26458 0 0 .26458 -23.043 -106.98)" fill="none"/>
    <path style="fill:#f0f;fill-opacity:0;stroke-width:4.15748" d="M640.95 662.1c-37.522-7.143-69.052-30.549-85.496-63.466-8.993-18.003-12.446-34.473-11.661-55.634 1.51-40.771 22.42-75.358 58.207-96.28 36.025-21.06 83.025-20.933 119.5.325 36.078 21.027 58.012 58.785 57.996 99.836-.008 19.356-4.09 36.064-13.102 53.619-14.976 29.174-42.667 51.027-75.6 59.66-8.15 2.137-12.564 2.628-26.294 2.925-11.058.24-18.825-.085-23.55-.985z" transform="matrix(.26458 0 0 .26458 -23.043 -106.98)" fill="none"/>
    <path style="fill:#f0f;fill-opacity:0;stroke-width:4.15748" d="M529.5 546V419.5h262v253h-262zm151.648 116.468c41.163-6.519 76.941-35.95 91.848-75.555 8.561-22.743 8.993-52.924 1.09-76.158-16.894-49.673-64.944-82.313-117.586-79.876-30.471 1.41-56.568 12.582-78.34 33.538-24.9 23.965-38.317 60.05-34.726 93.396 5.423 50.367 39.95 90.146 89.145 102.707 15.233 3.89 32.049 4.564 48.57 1.948z" transform="matrix(.26458 0 0 .26458 -23.043 -106.98)" fill="none"/>
    <path style="fill:#f0f;fill-opacity:0;stroke-width:4.15748" d="M529.5 546V419.5h262v253h-262zm151.648 116.468c41.163-6.519 76.941-35.95 91.848-75.555 8.561-22.743 8.993-52.924 1.09-76.158-16.894-49.673-64.944-82.313-117.586-79.876-30.471 1.41-56.568 12.582-78.34 33.538-24.9 23.965-38.317 60.05-34.726 93.396 5.423 50.367 39.95 90.146 89.145 102.707 15.233 3.89 32.049 4.564 48.57 1.948z" transform="matrix(.26458 0 0 .26458 -23.043 -106.98)" fill="none"/>
    <path style="fill:#f0f;fill-opacity:0;stroke-width:4.15748" d="M640.95 662.1c-37.522-7.143-69.052-30.549-85.496-63.466-8.993-18.003-12.446-34.473-11.661-55.634 1.51-40.771 22.42-75.358 58.207-96.28 36.025-21.06 83.025-20.933 119.5.325 36.078 21.027 58.012 58.785 57.996 99.836-.008 19.356-4.09 36.064-13.102 53.619-14.976 29.174-42.667 51.027-75.6 59.66-8.15 2.137-12.564 2.628-26.294 2.925-11.058.24-18.825-.085-23.55-.985z" transform="matrix(.26458 0 0 .26458 -23.043 -106.98)" fill="none"/>
    <path style="fill:#f0f;fill-opacity:0;stroke-width:4.15748" d="M529.5 546V419.5h262v253h-262zm151.648 116.468c41.163-6.519 76.941-35.95 91.848-75.555 8.561-22.743 8.993-52.924 1.09-76.158-16.894-49.673-64.944-82.313-117.586-79.876-30.471 1.41-56.568 12.582-78.34 33.538-24.9 23.965-38.317 60.05-34.726 93.396 5.423 50.367 39.95 90.146 89.145 102.707 15.233 3.89 32.049 4.564 48.57 1.948z" transform="matrix(.26458 0 0 .26458 -23.043 -106.98)" fill="none"/>
</svg>
