<?xml version="1.0" encoding="UTF-8"?>
<svg version="1.1" viewBox="0 0 1112.9 436.96" xmlns="http://www.w3.org/2000/svg">
<defs>
<clipPath id="c">
<rect x="207.1" y="518.89" width="1112.9" height="436.96" fill="#e9fc12" stroke-width="4.1575"/>
</clipPath>
<clipPath id="b">
<rect x="-63.442" y="-88.89" width="1669.3" height="655.43" fill="#e9fc12" stroke-width="4.1575"/>
</clipPath>
<clipPath id="a">
<rect x="207.1" y="518.89" width="1112.9" height="436.96" fill="#e9fc12" stroke-width="4.1575"/>
</clipPath>
</defs>
<rect transform="translate(-207.1 -518.89)" width="1500" height="1500" clip-path="url(#a)" fill="#1a365d"/>
<g transform="matrix(.66667 0 0 .66667 42.295 59.26)" clip-path="url(#b)">
<svg width="1500" height="515" data-background-color="#1a365d" preserveAspectRatio="xMidYMid" version="1.1" viewBox="0 0 396 136">
<g transform="translate(.24 .074356)">
<svg width="395.52" height="135.85" version="1.1" viewBox="0 0 395.52 135.85129">
<svg width="395.52" height="135.85" version="1.1" viewBox="0 0 658.17292 226.06604">
<g transform="translate(262.65 55.047)">
<svg width="395.52" height="115.97" version="1.1" viewBox="0 0 395.52 115.97257">
<svg width="395.52" height="115.97" version="1.1" viewBox="0 0 395.52 115.97257">
<svg width="395.52" height="77.49" version="1.1" viewBox="0 0 395.52 77.489633">
<svg width="395.52" height="77.49" data-palette-color="#cdedfe" version="1.1" viewBox="1.95 -35 232.72 45.6">
<path class="wordmark-text-0" d="m20.45-8.8v-8.5q0-2.65-0.97-4.53-0.98-1.87-2.85-2.85-1.88-0.97-4.68-0.82-1.2 0.05-2.42 0.37-1.23 0.33-2.4 0.95-1.18 0.63-2.28 1.53v-2.35h-2.9v34.4l2.9 1.2v-13.65q0.6 1 1.68 1.85 1.07 0.85 2.47 1.33 1.4 0.47 2.95 0.47 4.15 0 6.33-2.43 2.17-2.42 2.17-6.97zm-2.85-8.35v8.8q0 2.15-0.67 3.55-0.68 1.4-1.95 2.1-1.28 0.7-3.18 0.7-1.45 0-2.7-0.45t-2.2-1.3-1.5-2.1-0.55-2.85v-10.95q0.75-1.05 1.85-1.75t2.33-1.1q1.22-0.4 2.32-0.5 1.2-0.1 2.33 0.17 1.12 0.28 2 0.95 0.87 0.68 1.39 1.85 0.53 1.18 0.53 2.88zm7-17.85v35h2.8v-35zm22.74 32.6v2.4h2.8v-25.05h-2.8v16.4q0 1.35-0.5 2.5t-1.42 2.05-2.17 1.4-2.75 0.5q-1.91 0-3.26-0.63-1.35-0.62-2.04-2.02-0.71-1.4-0.71-3.7v-16.5h-2.85v17.2q0 1.7 0.38 3.05 0.37 1.35 1.1 2.35 0.72 1 1.8 1.65 1.07 0.65 2.45 0.98 1.37 0.32 3.02 0.32 1.25 0 2.56-0.32 1.3-0.33 2.44-0.98 1.16-0.65 1.95-1.6zm22.8-14.7v17.1h2.75v-17.25q0-1.6-0.37-2.88-0.38-1.27-1.1-2.27-0.73-1-1.78-1.7t-2.42-1.05q-1.38-0.35-3.03-0.35-1.25 0-2.47 0.27-1.23 0.28-2.35 0.75-1.13 0.48-2.08 1.13v-1.7h-2.85v25.05h2.85v-21.25q1.05-0.6 2.05-0.98 1-0.37 2.08-0.57 1.07-0.2 2.22-0.2 1.2 0 2.35 0.3t2.1 0.97q0.95 0.68 1.5 1.8 0.55 1.13 0.55 2.83zm25.35 20.3v-28.2h-2.85v2.35q-1.1-0.9-2.28-1.53-1.17-0.62-2.39-0.95-1.23-0.32-2.43-0.37-2.75-0.15-4.65 0.82-1.9 0.98-2.9 2.85-1 1.88-1 4.53v8.5q0 4.55 2.2 6.97 2.2 2.43 6.4 2.43 1.15 0 2.22-0.27 1.08-0.28 2.03-0.78t1.68-1.18q0.72-0.67 1.12-1.42v6.2q0 1-0.23 1.83-0.22 0.82-0.62 1.47t-1.02 1.13q-0.63 0.47-1.48 0.82l0.8 2.15q1.9-0.6 3.1-1.55t1.75-2.37q0.55-1.43 0.55-3.43zm-2.85-22.85v10.95q0 1.6-0.53 2.85-0.52 1.25-1.47 2.1t-2.2 1.3-2.7 0.45q-1.9 0-3.22-0.7-1.33-0.7-2.03-2.1t-0.7-3.55v-8.8q0-1.7 0.55-2.88 0.55-1.17 1.47-1.85 0.93-0.67 2.05-0.95 1.13-0.27 2.28-0.17 0.8 0.05 1.7 0.3t1.82 0.67q0.93 0.43 1.7 1.03 0.78 0.6 1.28 1.35zm9.75 12.95v-3.1l15.25-0.8v-6.5q0-2.8-1.08-4.65-1.07-1.85-3.05-2.8-1.97-0.95-4.67-0.95-2.65 0-4.75 0.95t-3.3 2.85-1.2 4.75v10.25q0 2.1 0.62 3.5 0.63 1.4 1.78 2.25t2.75 1.2 3.5 0.35 4.1-0.63q2.2-0.62 4.05-1.72l-1.1-2.15q-1.85 0.95-3.65 1.52-1.8 0.58-3.65 0.58-1.2 0-2.23-0.28-1.02-0.27-1.77-0.85-0.75-0.57-1.18-1.49-0.42-0.93-0.42-2.28zm12.45-10.75v4.35l-12.45 0.55v-4.35q0-2 0.77-3.4 0.78-1.4 2.23-2.13 1.45-0.72 3.4-0.72 1.75 0 3.1 0.7t2.15 1.97q0.8 1.28 0.8 3.03zm20.19-4.5 1.16-1.9q-1.21-0.75-2.36-1.13-1.14-0.37-2.2-0.5-1.05-0.12-2.05-0.12-1.5 0-2.95 0.4t-2.62 1.22q-1.18 0.83-1.88 2-0.7 1.18-0.7 2.78 0 1.65 0.78 2.82 0.77 1.18 2.02 2.03t2.78 1.5q1.52 0.65 3.05 1.25 1.52 0.6 2.77 1.32 1.25 0.73 2.03 1.7 0.77 0.98 0.77 2.33 0 1.2-0.57 2.05-0.58 0.85-1.5 1.42-0.93 0.58-1.98 0.83t-2 0.25q-1.55 0-2.92-0.38-1.38-0.37-2.58-1.12t-2.35-1.85l-1.55 1.65q1.75 2 4.25 3.15t5.15 1.15q1.61 0 3.13-0.45t2.77-1.35 2-2.25 0.75-3.15q0-1.85-0.77-3.13-0.77-1.27-2.02-2.17t-2.78-1.58q-1.53-0.67-3.03-1.25-1.5-0.57-2.75-1.25-1.25-0.67-2.02-1.52-0.78-0.85-0.78-2.1 0-1.05 0.55-1.8t1.45-1.23q0.9-0.47 1.98-0.7 1.07-0.22 2.07-0.22 0.85 0 1.73 0.15 0.87 0.15 1.7 0.42 0.82 0.28 1.47 0.73zm10.1 15.35v-15.8h4.85l1.2-2.6h-6.05v-10h-2.8v28.4q0 2.9 1.25 4.65t4 2.6l0.85-2.15q-1.1-0.4-1.82-1.08-0.73-0.67-1.1-1.7-0.38-1.02-0.38-2.32zm23.25-16.45 0.2-2.4t-0.67-0.1q-0.68-0.1-1.58-0.05-2.7 0.15-4.67 0.75-1.98 0.6-3.83 1.45v-1.65h-2.85v25.05h2.85v-20.45q0.7-0.45 1.7-0.93 1-0.47 2.15-0.85 1.15-0.37 2.35-0.6 1.2-0.22 2.25-0.27 0.85-0.05 1.48 0 0.62 0.05 0.62 0.05zm5.5 16.35v-3.1l15.25-0.8v-6.5q0-2.8-1.08-4.65-1.07-1.85-3.05-2.8-1.97-0.95-4.67-0.95-2.65 0-4.75 0.95t-3.3 2.85-1.2 4.75v10.25q0 2.1 0.62 3.5 0.63 1.4 1.78 2.25t2.75 1.2 3.5 0.35 4.1-0.63q2.2-0.62 4.05-1.72l-1.1-2.15q-1.85 0.95-3.65 1.52-1.8 0.58-3.65 0.58-1.2 0-2.23-0.28-1.02-0.27-1.77-0.85-0.75-0.57-1.18-1.49-0.42-0.93-0.42-2.28zm12.45-10.75v4.35l-12.45 0.55v-4.35q0-2 0.77-3.4 0.78-1.4 2.23-2.13 1.45-0.72 3.4-0.72 1.75 0 3.1 0.7t2.15 1.97q0.8 1.28 0.8 3.03zm23-0.05q-1.15-0.7-2.58-1.3-1.42-0.6-2.97-0.98-1.55-0.37-3.2-0.37-1.5 0-2.88 0.4-1.37 0.4-2.47 1.27-1.1 0.88-1.73 2.33-0.62 1.45-0.62 3.55v4.15q0 2.75 0.87 4.55 0.88 1.8 2.4 2.77 1.53 0.98 3.6 1.33 2.08 0.35 4.48 0.3 0.75 0 1.77-0.05 1.03-0.05 2.1-0.12 1.08-0.08 2-0.15 0.93-0.08 1.5-0.13 0.58-0.05 0.53-0.05v-14.4q0-3.1-0.5-5.23-0.5-2.12-1.68-3.4-1.17-1.27-3.17-1.85-2-0.57-5.05-0.57l-0.1 2.15q1.5 0 2.9 0.22 1.4 0.23 2.47 0.83 1.08 0.6 1.7 1.75 0.63 1.15 0.63 3zm0 2.35v12.85t-0.23 0.03q-0.22 0.02-0.67 0.04-0.45 0.03-1.1 0.1-0.65 0.08-1.48 0.13-0.82 0.05-1.82 0.1-2.5 0.1-4.15-0.28-1.65-0.37-2.58-1.25-0.92-0.87-1.3-2.22-0.37-1.35-0.37-3.15v-3.7q0-1.7 0.47-2.75 0.48-1.05 1.23-1.57 0.75-0.53 1.55-0.73t1.45-0.2q1.6 0 3.15 0.35t3.05 0.95 2.8 1.3zm25.34 15.15-10.9-17.6 7.4-6.5-2-1.9-10 9.25v-18.25h-2.85v35h2.85v-13.65l2.6-2.2 9.55 15.85z" fill="#cdedfe" data-fill-palette-color="primary"/>
</svg>
</svg>
<g transform="translate(0 95.783)">
<svg width="232.21" height="20.189" version="1.1" viewBox="0 0 232.20979 20.189493">
<svg width="232.21" height="20.189" data-palette-color="#cdedfe" version="1.1" viewBox="0.81 -36.84 555.36 48.29">
<path class="slogan-text-1" d="m29.15-33.54v7.98h-2.95l-0.71-4.69q-0.17-0.85-0.83-0.85h-7.16v27.66q0 0.36 0.26 0.71 0.26 0.34 0.79 0.39l3.2 0.19v2.15h-13.55v-2.15l3.2-0.19q0.54-0.05 0.79-0.39 0.26-0.35 0.26-0.71v-27.66h-7.2q-0.73 0-0.86 0.85l-0.68 4.69h-2.9v-7.98zm19.85 9.59v4.96h-1.96q-0.46-0.57-1.11-0.97-0.64-0.4-1.57-0.4-1.2 0-2.46 0.83-1.25 0.83-2.55 2.27v14.06q0 1.05 1.05 1.1l3.3 0.15v1.95h-12.5v-1.9l2.46-0.2q0.44-0.05 0.75-0.34 0.3-0.29 0.3-0.76v-17.36h-3.61v-1.63l6.2-1.91h2.05v4.45q0.74-0.81 1.83-2.01 1.1-1.19 2.35-2.12 1.24-0.93 2.41-0.93 0.79 0 1.69 0.25 0.9 0.24 1.37 0.51zm25.12 22v1.95h-7.4l-0.66-2.95t-0.75 0.53q-0.74 0.54-1.96 1.25t-2.7 1.24q-1.48 0.54-2.94 0.54-2.71 0-4.6-1.81-1.89-1.8-1.89-4.95 0-1.39 0.5-2.59t2-2.28q1.5-1.09 4.47-2.13 2.96-1.03 7.87-2.11v-2.15q0-4.93-4.66-4.93-1.3 0-2.24 0.25-0.94 0.24-1.3 0.39v4.34h-3.64q-0.68 0-1.27-0.25-0.59-0.26-0.59-1.19 0-2.05 1.57-3.36 1.56-1.3 3.96-1.92 2.41-0.63 4.87-0.63 3.1 0 4.81 0.97 1.71 0.96 2.4 2.66 0.68 1.7 0.68 3.87v14.01q0 0.47 0.3 0.76 0.31 0.29 0.75 0.34zm-8.06-2.76v-8.64q-3.37 0.83-5.36 1.67t-2.97 1.68q-0.97 0.84-1.28 1.71-0.3 0.87-0.3 1.8 0 1.53 0.99 2.84 0.98 1.31 2.77 1.31 1 0 2.07-0.36 1.08-0.35 2-0.83 0.93-0.47 1.51-0.83 0.57-0.35 0.57-0.35zm30.49 0v2.85q-1.68 0.91-3.8 1.69-2.11 0.78-4.65 0.78-3.49 0-6.06-1.64-2.58-1.63-3.98-4.45-1.41-2.82-1.41-6.41 0-4.2 1.68-7.06 1.67-2.85 4.41-4.3 2.75-1.46 5.95-1.46 3.29 0 5.53 1.28 2.23 1.29 2.23 3.73 0 1.46-0.91 2.21-0.92 0.74-2.04 0.74-0.83 0-1.44-0.28t-1.08-0.57v-4.35q-1.14-0.66-2.1-0.66-2.22 0-3.82 1.31-1.6 1.3-2.45 3.58-0.85 2.27-0.85 5.17 0 2.76 0.92 5.04 0.93 2.29 2.77 3.63 1.85 1.34 4.58 1.34 1.73 0 3.32-0.56t3.2-1.61zm27.88 2.76v1.95h-8.01v-1.95l-6.25-9.4h-2.78v8.15q0 1.03 1.05 1.1l2.15 0.15v1.95h-11.36v-1.95l2.44-0.15q1.05-0.07 1.05-1.1v-30.05h-3.78v-1.66l6.4-1.93h2.05v24.05h1l7.35-8.3q0.09-0.13 0.09-0.32 0-0.49-0.51-0.54l-2.05-0.19v-1.96h9.72v1.96l-3.2 0.34-6.62 7.05 8.62 12.5zm49.02-22.15v1.96l-2.62 0.29-9.59 23.39q-0.32 0.8-0.99 2.31-0.67 1.5-1.59 3.07-0.91 1.58-1.96 2.63-0.9 0.9-1.99 1.4t-2.36 0.5q-1.78 0-2.72-0.87-0.94-0.86-0.94-1.99 0-1.66 1.61-3l4.69 2.15q0.83-0.83 1.66-2.25 0.83-1.41 1.5-2.93 0.67-1.51 1.04-2.61l-8.5-21.8-2.76-0.29v-1.96h11.06v1.96l-2.39 0.14q-0.8 0.08-0.8 0.81 0 0.19 0.04 0.29l5.81 14.75 5.94-14.75q0.07-0.14 0.07-0.32 0-0.73-0.76-0.78l-2.36-0.14v-1.96zm25.97 12.09q0 3.54-1.46 6.41-1.47 2.87-4.14 4.54-2.68 1.67-6.34 1.67-3.64 0-6.3-1.66t-4.1-4.52q-1.44-2.85-1.44-6.44 0-3.57 1.45-6.45 1.46-2.88 4.15-4.56 2.7-1.69 6.39-1.69 3.73 0 6.37 1.71t4.03 4.59 1.39 6.4zm-5.2-0.05q0-2.73-0.72-5.1t-2.2-3.84q-1.47-1.46-3.72-1.46-2.32 0-3.8 1.46-1.47 1.47-2.18 3.84t-0.71 5.1q0 2.71 0.72 5.09t2.2 3.84q1.48 1.47 3.72 1.47 2.3 0 3.77-1.47 1.48-1.46 2.2-3.83t0.72-5.1zm34.3 10.11v1.95h-7.93v-2.86q-0.86 0.66-2.18 1.47-1.32 0.8-2.83 1.4t-3 0.6q-3.22 0-5.07-1.94-1.84-1.94-1.84-6.17v-13.54h-3.49v-1.71l6.15-1.96h2v16.26q0 2.66 1.09 4.15 1.08 1.49 3.75 1.49 1.53 0 3.02-0.52 1.49-0.53 2.4-0.97v-16.74h-3.52v-1.71l6.1-1.96h2.05v21.51q0 0.47 0.33 0.76t0.77 0.34zm20.09-22v4.96h-1.95q-0.47-0.57-1.11-0.97-0.65-0.4-1.58-0.4-1.19 0-2.45 0.83t-2.55 2.27v14.06q0 1.05 1.05 1.1l3.29 0.15v1.95h-12.5v-1.9l2.47-0.2q0.44-0.05 0.74-0.34 0.31-0.29 0.31-0.76v-17.36h-3.62v-1.63l6.21-1.91h2.05v4.45q0.73-0.81 1.83-2.01 1.1-1.19 2.34-2.12 1.25-0.93 2.42-0.93 0.78 0 1.68 0.25 0.91 0.24 1.37 0.51zm44.62 19.24v2.85q-1.68 0.91-3.79 1.69t-4.65 0.78q-3.49 0-6.07-1.64-2.58-1.63-3.98-4.45t-1.4-6.41q0-4.2 1.67-7.06 1.67-2.85 4.42-4.3 2.74-1.46 5.94-1.46 3.3 0 5.53 1.28 2.24 1.29 2.24 3.73 0 1.46-0.92 2.21-0.91 0.74-2.04 0.74-0.83 0-1.44-0.28t-1.07-0.57v-4.35q-1.15-0.66-2.1-0.66-2.22 0-3.82 1.31-1.6 1.3-2.46 3.58-0.85 2.27-0.85 5.17 0 2.76 0.93 5.04 0.92 2.29 2.77 3.63 1.84 1.34 4.58 1.34 1.73 0 3.32-0.56 1.58-0.56 3.19-1.61zm27.17-7.3q0 3.54-1.46 6.41-1.47 2.87-4.14 4.54t-6.33 1.67q-3.64 0-6.3-1.66t-4.1-4.52q-1.44-2.85-1.44-6.44 0-3.57 1.45-6.45t4.15-4.56q2.7-1.69 6.38-1.69 3.74 0 6.37 1.71 2.64 1.71 4.03 4.59t1.39 6.4zm-5.2-0.05q0-2.73-0.72-5.1t-2.19-3.84q-1.48-1.46-3.73-1.46-2.32 0-3.79 1.46-1.48 1.47-2.19 3.84t-0.71 5.1q0 2.71 0.72 5.09t2.2 3.84q1.48 1.47 3.72 1.47 2.3 0 3.78-1.47 1.47-1.46 2.19-3.83t0.72-5.1zm20.41 10.11v1.95h-12.16v-1.95l2.66-0.15q0.35 0 0.73-0.37 0.37-0.36 0.37-0.68v-30.1h-3.8v-1.66l6.39-1.93h2.05v33.69q0 0.32 0.37 0.68 0.36 0.37 0.68 0.37zm28.25 0v1.95h-7.86v-2.66q-1.71 1.32-3.64 2.29-1.93 0.98-4.1 0.98-2.52 0-4.34-1.06t-2.98-2.82-1.72-3.88q-0.56-2.13-0.56-4.25 0-3.39 1.39-6.43t4.23-4.96q2.83-1.92 7.13-1.92 1.19 0 2.6 0.23 1.4 0.24 1.99 0.38v-9.15h-3.79v-1.66l6.45-1.93h2v33.64q0 1.03 1.05 1.1zm-7.86-2.59v-17.02q-0.64-0.22-1.9-0.47-1.25-0.26-2.35-0.26-3.71 0-5.94 2.75-2.22 2.74-2.22 7.28 0 4.08 1.91 6.77 1.9 2.68 5.34 2.68 1.52 0 2.85-0.57 1.33-0.58 2.31-1.16zm57.9-7.86q0 3.93-1.51 6.86-1.52 2.93-4.35 4.54t-6.79 1.61q-0.9 0-1.94-0.12-1.03-0.12-1.77-0.23-0.73-0.11-0.73-0.11v7.44q0 0.47 0.32 0.74 0.32 0.26 0.78 0.31l2.95 0.32v1.93h-12.15v-1.93l2.39-0.32q1.05-0.07 1.05-1.05v-28.15h-3.44v-1.63l6.15-1.91h1.95v2.49t0.62-0.46q0.63-0.46 1.69-1.09 1.06-0.62 2.41-1.08 1.36-0.47 2.82-0.47 2.59 0 4.75 1.53 2.16 1.52 3.48 4.28t1.32 6.5zm-5 0.71q0-2.59-0.8-4.74-0.79-2.15-2.34-3.46-1.55-1.3-3.85-1.3-1.24 0-2.41 0.36-1.18 0.37-1.93 0.75-0.76 0.38-0.76 0.38v17.21t1.26 0.39 2.79 0.39q2.76 0 4.53-1.42 1.77-1.41 2.64-3.69 0.87-2.29 0.87-4.87zm20.21 9.74v1.95h-12.16v-1.95l2.66-0.15q0.34 0 0.72-0.37 0.38-0.36 0.38-0.68v-30.1h-3.81v-1.66l6.4-1.93h2.05v33.69q0 0.32 0.36 0.68 0.37 0.37 0.69 0.37zm28.73 0v1.95h-7.93v-2.86q-0.86 0.66-2.18 1.47-1.32 0.8-2.83 1.4t-3 0.6q-3.22 0-5.07-1.94-1.84-1.94-1.84-6.17v-13.54h-3.49v-1.71l6.15-1.96h2v16.26q0 2.66 1.09 4.15t3.75 1.49q1.53 0 3.02-0.52 1.49-0.53 2.4-0.97v-16.74h-3.52v-1.71l6.1-1.96h2.05v21.51q0 0.47 0.33 0.76t0.77 0.34zm28.39 0v1.95h-11.03v-1.95l2.1-0.15q0.44-0.05 0.74-0.34 0.31-0.29 0.31-0.76v-13.01q0-2.37-1.1-3.6t-3.71-1.23q-1.42 0-2.82 0.4-1.41 0.4-2.68 1.04v16.4q0 1.03 1.05 1.1l2.1 0.15v1.95h-11.3v-1.95l2.44-0.15q1.05-0.07 1.05-1.1v-17.36h-3.49v-1.63l6.1-1.91h2.05v2.49q2.1-1.19 4.31-2.14 2.21-0.96 3.95-0.96 3.27 0 4.98 2.04 1.7 2.04 1.7 5.68v13.79q0 0.47 0.31 0.76t0.74 0.34zm26.39-21.24v2.44h-4.98q0.56 0.9 0.95 1.98 0.39 1.07 0.39 2.51 0 2.49-1.36 4.26-1.37 1.77-3.61 2.72-2.23 0.95-4.84 0.95-0.25 0-0.49 0t-0.49-0.02q-0.32 0.51-0.43 1.1-0.1 0.58-0.1 1.1 0 0.46 0.04 0.78 0.05 0.32 0.08 0.37l0.71 0.07q1.75 0.17 3.94 0.49 2.18 0.31 4.22 1.02t3.36 2q1.32 1.3 1.32 3.42 0 2.37-1.74 4.53-1.73 2.16-4.67 3.54t-6.58 1.38q-4.47 0-6.93-2.04-2.47-2.04-2.47-5.06 0-2.18 1.29-3.87 1.3-1.7 4.01-2.19-0.27-0.78-0.39-1.12-0.13-0.34-0.13-1.17 0-0.98 0.6-2.16 0.6-1.19 1.92-2.53-2.49-0.56-4.35-2.53-1.85-1.96-1.85-4.99 0-3.93 2.77-6.21 2.77-2.29 7.26-2.29 1.78 0 3.31 0.53 1.53 0.52 2.5 0.99zm-8.4 6.64q0-1.59-0.53-2.98-0.54-1.39-1.57-2.26-1.02-0.87-2.54-0.87-2.1 0-3.43 1.63-1.33 1.62-1.33 4.53 0 2.51 1.2 4.31 1.2 1.79 3.56 1.79 2.25 0 3.45-1.81 1.19-1.8 1.19-4.34zm2.81 19.89q0-1.56-1.09-2.41-1.08-0.86-2.69-1.27-1.62-0.42-3.25-0.6-1.64-0.18-2.76-0.4-2.17 0.78-2.99 2.12t-0.82 2.56q0 1.2 0.7 2.56 0.69 1.35 2.15 2.3 1.45 0.96 3.69 0.96 2.4 0 3.96-0.96 1.56-0.95 2.33-2.3 0.77-1.36 0.77-2.56zm29.25-8.88v3.05q-2.1 1.29-4.53 2.2-2.43 0.9-4.97 0.9-3.03 0-5.68-1.35-2.65-1.36-4.28-4.12-1.64-2.76-1.64-6.93 0-3.91 1.52-6.81 1.51-2.91 4.17-4.51t6.06-1.6q4.66 0 7 2.9 2.35 2.89 2.35 7.36 0 0.24 0 0.64 0 0.41-0.05 0.75h-16.21q0 1.9 0.4 3.79 0.4 1.9 1.35 3.44 0.96 1.53 2.57 2.46t4.03 0.93q2.14 0 4.18-0.99t3.73-2.11zm-16-9.77h10.99v-1.1q0-2.46-1.18-4.15-1.19-1.68-3.68-1.68-2.46 0-4.2 1.85-1.73 1.86-1.93 5.08zm35.89 8.06q0 3.69-2.54 5.77-2.54 2.09-7.01 2.09-2.29 0-4.23-0.48-1.94-0.47-2.7-0.79v-6.64h2.54l0.61 4.25q0.76 0.49 1.87 0.94t2.57 0.45q2.15 0 3.32-1.2 1.18-1.19 1.18-2.68 0-1.98-1.42-2.99-1.42-1.02-4.03-2.26l-0.66-0.32q-2.73-1.29-4.18-2.7-1.46-1.4-1.46-3.65 0-3.34 2.35-5.29 2.34-1.96 6.66-1.96 2.2 0 3.92 0.41 1.72 0.4 2.48 0.74v5.91h-2.61l-0.39-3.49q-0.54-0.42-1.59-0.78-1.05-0.37-2.22-0.37-2.05 0-3.06 0.94-1 0.94-1 2.4 0 1.69 1.21 2.68t4.38 2.43q2.62 1.19 4.31 2.67 1.7 1.48 1.7 3.92z" fill="#cdedfe" data-fill-palette-color="secondary"/>
</svg>
</svg>
</g>
</svg>
</svg>
</g>
<svg width="226.07" height="226.07" version="1.1" viewBox="0 0 226.06604 226.06604">
<svg version="1.1"/>
<svg width="226.07" height="226.07" version="1.1" viewBox="0 0 226.06604 226.06604">
<path d="m0 113.03c0-62.426 50.607-113.03 113.03-113.03s113.03 50.607 113.03 113.03-50.607 113.03-113.03 113.03-113.03-50.607-113.03-113.03zm113.03 106.04c58.567 0 106.04-47.478 106.04-106.04s-47.478-106.04-106.04-106.04-106.04 47.478-106.04 106.04 47.478 106.04 106.04 106.04z" fill="#e9fc12" stroke="transparent" data-fill-palette-color="accent"/>
<g transform="translate(48.782 60.919)">
<svg width="128.5" height="104.23" version="1.1" viewBox="0 0 128.50126 104.2288">
<svg class="icon-cg-0" width="128.5" height="104.23" enable-background="new 0 0 100 100" data-fill-palette-color="accent" version="1.1" viewBox="5 13.5 90 73" xml:space="preserve"><g fill="#e9fc12" data-fill-palette-color="accent"><path d="m30 83.5h-5c-0.829 0-1.5 0.672-1.5 1.5s0.671 1.5 1.5 1.5h5c0.829 0 1.5-0.672 1.5-1.5s-0.671-1.5-1.5-1.5z" data-fill-palette-color="accent"/><path d="m75 83.5h-5c-0.828 0-1.5 0.672-1.5 1.5s0.672 1.5 1.5 1.5h5c0.828 0 1.5-0.672 1.5-1.5s-0.672-1.5-1.5-1.5z" data-fill-palette-color="accent"/><path d="m92.5 55h-6v-41.5h-17.121l-9.379 9.379-3.939-3.939c-0.586-0.586-1.535-0.586-2.121 0-0.586 0.585-0.586 1.536 0 2.121l10 10c0.292 0.293 0.676 0.439 1.06 0.439s0.768-0.146 1.061-0.439c0.586-0.585 0.586-1.536 0-2.121l-3.94-3.94 8.5-8.5h12.879v38.5h-8.936c0.278-0.783 0.436-1.622 0.436-2.5 0-4.142-3.357-7.5-7.5-7.5-3.28 0-6.062 2.109-7.08 5.042-0.141-0.012-0.276-0.042-0.42-0.042 0-5.523-4.478-10-10-10-5.523 0-10 4.477-10 10-2.761 0-5 2.238-5 5 0-2.762-2.239-5-5-5s-5 2.238-5 5h-17.5c-1.381 0-2.5 1.119-2.5 2.5s1.119 2.5 2.5 2.5h7.5v8c0 6.627 5.373 12 12 12h46c6.627 0 12-5.373 12-12v-8h7.5c1.381 0 2.5-1.119 2.5-2.5s-1.119-2.5-2.5-2.5z" data-fill-palette-color="accent"/><circle cx="35" cy="45" r="5" data-fill-palette-color="accent"/></g></svg>
</svg>
</g>
</svg>
</svg>
</svg>
</svg>
<rect width="395.52" height="135.85" fill="none" visibility="hidden"/>
</g>
</svg>
</g>
<text transform="translate(-207.1 -518.89)" x="337.58008" y="787.6579" clip-path="url(#c)" fill="#e9fc12" font-family="'Magnolia Sky'" font-size="131.35px" stroke-width="4.1575" xml:space="preserve"><tspan x="337.58008" y="787.6579" stroke-width="4.1575">*</tspan></text>
</svg>
