<?xml version="1.0" encoding="UTF-8" standalone="no"?>
<svg
   version="1.1"
   width="1500"
   height="1500"
   viewBox="0 0 1500 1500"
   id="svg396"
   sodipodi:docname="logo.svg"
   xml:space="preserve"
   inkscape:version="1.2.2 (b0a84865, 2022-12-01)"
   xmlns:inkscape="http://www.inkscape.org/namespaces/inkscape"
   xmlns:sodipodi="http://sodipodi.sourceforge.net/DTD/sodipodi-0.dtd"
   xmlns="http://www.w3.org/2000/svg"
   xmlns:svg="http://www.w3.org/2000/svg"><defs
     id="defs400"><rect
       x="334.20625"
       y="675.85112"
       width="37.724394"
       height="30.285781"
       id="rect510" /></defs><sodipodi:namedview
     id="namedview398"
     pagecolor="#ffffff"
     bordercolor="#000000"
     borderopacity="0.25"
     inkscape:showpageshadow="2"
     inkscape:pageopacity="0.0"
     inkscape:pagecheckerboard="0"
     inkscape:deskcolor="#d1d1d1"
     showgrid="false"
     inkscape:zoom="0.77853528"
     inkscape:cx="355.79634"
     inkscape:cy="784.16485"
     inkscape:window-width="1512"
     inkscape:window-height="845"
     inkscape:window-x="0"
     inkscape:window-y="38"
     inkscape:window-maximized="1"
     inkscape:current-layer="svg396" /><rect
     width="1500"
     height="1500"
     fill="#1a365d"
     id="rect323"
     x="-17.284431"
     y="-1.0974258" /><g
     transform="matrix(0.6666666666666666,0,0,0.6666666666666666,249.39393939393938,578.145621140492)"
     id="g394"><svg
       viewBox="0 0 396 136"
       data-background-color="#1a365d"
       preserveAspectRatio="xMidYMid meet"
       height="515"
       width="1500"
       version="1.1"
       id="svg392"><g
         id="tight-bounds"
         transform="matrix(1,0,0,1,0.2400000000000091,0.07435589774684104)"><svg
           viewBox="0 0 395.52 135.8512882045063"
           height="135.8512882045063"
           width="395.52"
           version="1.1"
           id="svg387"><g
             id="g383"><svg
               viewBox="0 0 658.1729234448571 226.066038408449"
               height="135.8512882045063"
               width="395.52"
               version="1.1"
               id="svg381"><g
                 transform="matrix(1,0,0,1,262.65292344485715,55.04673505648197)"
                 id="g347"><svg
                   viewBox="0 0 395.52 115.97256829548506"
                   height="115.97256829548506"
                   width="395.52"
                   version="1.1"
                   id="svg345"><g
                     id="textblocktransform"><svg
                       viewBox="0 0 395.52 115.97256829548506"
                       height="115.97256829548506"
                       width="395.52"
                       id="textblock"
                       version="1.1"><g
                         id="g332"><svg
                           viewBox="0 0 395.52 77.48963265306121"
                           height="77.48963265306121"
                           width="395.52"
                           version="1.1"
                           id="svg330"><g
                             transform="matrix(1,0,0,1,0,0)"
                             id="g328"><svg
                               width="395.52"
                               viewBox="1.95 -35 232.72 45.599999999999994"
                               height="77.48963265306121"
                               data-palette-color="#cdedfe"
                               version="1.1"
                               id="svg326"><path
                                 d="M20.45-8.8L20.45-8.8 20.45-17.3Q20.45-19.95 19.48-21.83 18.5-23.7 16.63-24.68 14.75-25.65 11.95-25.5L11.95-25.5Q10.75-25.45 9.53-25.13 8.3-24.8 7.13-24.18 5.95-23.55 4.85-22.65L4.85-22.65 4.85-25 1.95-25 1.95 9.4 4.85 10.6 4.85-3.05Q5.45-2.05 6.53-1.2 7.6-0.35 9 0.13 10.4 0.6 11.95 0.6L11.95 0.6Q16.1 0.6 18.28-1.83 20.45-4.25 20.45-8.8ZM17.6-17.15L17.6-17.15 17.6-8.35Q17.6-6.2 16.93-4.8 16.25-3.4 14.98-2.7 13.7-2 11.8-2L11.8-2Q10.35-2 9.1-2.45 7.85-2.9 6.9-3.75 5.95-4.6 5.4-5.85 4.85-7.1 4.85-8.7L4.85-8.7 4.85-19.65Q5.6-20.7 6.7-21.4 7.8-22.1 9.03-22.5 10.25-22.9 11.35-23L11.35-23Q12.55-23.1 13.68-22.83 14.8-22.55 15.68-21.88 16.55-21.2 17.07-20.03 17.6-18.85 17.6-17.15ZM24.6-35L24.6 0 27.4 0 27.4-35 24.6-35ZM47.34-2.4L47.34-2.4 47.34 0 50.14 0 50.14-25.05 47.34-25.05 47.34-8.65Q47.34-7.3 46.84-6.15 46.34-5 45.42-4.1 44.5-3.2 43.25-2.7 42-2.2 40.5-2.2L40.5-2.2Q38.59-2.2 37.24-2.83 35.89-3.45 35.2-4.85 34.49-6.25 34.49-8.55L34.49-8.55 34.49-25.05 31.64-25.05 31.64-7.85Q31.64-6.15 32.02-4.8 32.39-3.45 33.12-2.45 33.84-1.45 34.92-0.8 35.99-0.15 37.37 0.18 38.74 0.5 40.39 0.5L40.39 0.5Q41.64 0.5 42.95 0.18 44.25-0.15 45.39-0.8 46.55-1.45 47.34-2.4ZM70.14-17.1L70.14-17.1 70.14 0 72.89 0 72.89-17.25Q72.89-18.85 72.52-20.13 72.14-21.4 71.42-22.4 70.69-23.4 69.64-24.1 68.59-24.8 67.22-25.15 65.84-25.5 64.19-25.5L64.19-25.5Q62.94-25.5 61.72-25.23 60.49-24.95 59.37-24.48 58.24-24 57.29-23.35L57.29-23.35 57.29-25.05 54.44-25.05 54.44 0 57.29 0 57.29-21.25Q58.34-21.85 59.34-22.23 60.34-22.6 61.42-22.8 62.49-23 63.64-23L63.64-23Q64.84-23 65.99-22.7 67.14-22.4 68.09-21.73 69.04-21.05 69.59-19.93 70.14-18.8 70.14-17.1ZM95.49 3.2L95.49 3.2 95.49-25 92.64-25 92.64-22.65Q91.54-23.55 90.36-24.18 89.19-24.8 87.97-25.13 86.74-25.45 85.54-25.5L85.54-25.5Q82.79-25.65 80.89-24.68 78.99-23.7 77.99-21.83 76.99-19.95 76.99-17.3L76.99-17.3 76.99-8.8Q76.99-4.25 79.19-1.83 81.39 0.6 85.59 0.6L85.59 0.6Q86.74 0.6 87.81 0.33 88.89 0.05 89.84-0.45 90.79-0.95 91.52-1.63 92.24-2.3 92.64-3.05L92.64-3.05 92.64 3.15Q92.64 4.15 92.41 4.98 92.19 5.8 91.79 6.45 91.39 7.1 90.77 7.58 90.14 8.05 89.29 8.4L89.29 8.4 90.09 10.55Q91.99 9.95 93.19 9 94.39 8.05 94.94 6.63 95.49 5.2 95.49 3.2ZM92.64-19.65L92.64-19.65 92.64-8.7Q92.64-7.1 92.11-5.85 91.59-4.6 90.64-3.75 89.69-2.9 88.44-2.45 87.19-2 85.74-2L85.74-2Q83.84-2 82.52-2.7 81.19-3.4 80.49-4.8 79.79-6.2 79.79-8.35L79.79-8.35 79.79-17.15Q79.79-18.85 80.34-20.03 80.89-21.2 81.81-21.88 82.74-22.55 83.86-22.83 84.99-23.1 86.14-23L86.14-23Q86.94-22.95 87.84-22.7 88.74-22.45 89.66-22.03 90.59-21.6 91.36-21 92.14-20.4 92.64-19.65ZM102.39-6.7L102.39-6.7 102.39-9.8 117.64-10.6 117.64-17.1Q117.64-19.9 116.56-21.75 115.49-23.6 113.51-24.55 111.54-25.5 108.84-25.5L108.84-25.5Q106.19-25.5 104.09-24.55 101.99-23.6 100.79-21.7 99.59-19.8 99.59-16.95L99.59-16.95 99.59-6.7Q99.59-4.6 100.21-3.2 100.84-1.8 101.99-0.95 103.14-0.1 104.74 0.25 106.34 0.6 108.24 0.6L108.24 0.6Q110.14 0.6 112.34-0.03 114.54-0.65 116.39-1.75L116.39-1.75 115.29-3.9Q113.44-2.95 111.64-2.38 109.84-1.8 107.99-1.8L107.99-1.8Q106.79-1.8 105.76-2.08 104.74-2.35 103.99-2.93 103.24-3.5 102.81-4.42 102.39-5.35 102.39-6.7ZM114.84-17.45L114.84-17.45 114.84-13.1 102.39-12.55 102.39-16.9Q102.39-18.9 103.16-20.3 103.94-21.7 105.39-22.43 106.84-23.15 108.79-23.15L108.79-23.15Q110.54-23.15 111.89-22.45 113.24-21.75 114.04-20.48 114.84-19.2 114.84-17.45ZM135.03-21.95L135.03-21.95 136.19-23.85Q134.98-24.6 133.83-24.98 132.69-25.35 131.63-25.48 130.58-25.6 129.58-25.6L129.58-25.6Q128.08-25.6 126.63-25.2 125.18-24.8 124.01-23.98 122.83-23.15 122.13-21.98 121.43-20.8 121.43-19.2L121.43-19.2Q121.43-17.55 122.21-16.38 122.98-15.2 124.23-14.35 125.48-13.5 127.01-12.85 128.53-12.2 130.06-11.6 131.58-11 132.83-10.28 134.08-9.55 134.86-8.58 135.63-7.6 135.63-6.25L135.63-6.25Q135.63-5.05 135.06-4.2 134.48-3.35 133.56-2.78 132.63-2.2 131.58-1.95 130.53-1.7 129.58-1.7L129.58-1.7Q128.03-1.7 126.66-2.08 125.28-2.45 124.08-3.2 122.88-3.95 121.73-5.05L121.73-5.05 120.18-3.4Q121.93-1.4 124.43-0.25 126.93 0.9 129.58 0.9L129.58 0.9Q131.19 0.9 132.71 0.45 134.23 0 135.48-0.9 136.73-1.8 137.48-3.15 138.23-4.5 138.23-6.3L138.23-6.3Q138.23-8.15 137.46-9.43 136.69-10.7 135.44-11.6 134.19-12.5 132.66-13.18 131.13-13.85 129.63-14.43 128.13-15 126.88-15.68 125.63-16.35 124.86-17.2 124.08-18.05 124.08-19.3L124.08-19.3Q124.08-20.35 124.63-21.1 125.18-21.85 126.08-22.33 126.98-22.8 128.06-23.03 129.13-23.25 130.13-23.25L130.13-23.25Q130.98-23.25 131.86-23.1 132.73-22.95 133.56-22.68 134.38-22.4 135.03-21.95ZM145.13-6.6L145.13-6.6 145.13-22.4 149.98-22.4 151.18-25 145.13-25 145.13-35 142.33-35 142.33-6.6Q142.33-3.7 143.58-1.95 144.83-0.2 147.58 0.65L147.58 0.65 148.43-1.5Q147.33-1.9 146.61-2.58 145.88-3.25 145.51-4.28 145.13-5.3 145.13-6.6ZM168.38-23.05L168.38-23.05 168.58-25.45Q168.58-25.45 167.91-25.55 167.23-25.65 166.33-25.6L166.33-25.6Q163.63-25.45 161.66-24.85 159.68-24.25 157.83-23.4L157.83-23.4 157.83-25.05 154.98-25.05 154.98 0 157.83 0 157.83-20.45Q158.53-20.9 159.53-21.38 160.53-21.85 161.68-22.23 162.83-22.6 164.03-22.83 165.23-23.05 166.28-23.1L166.28-23.1Q167.13-23.15 167.76-23.1 168.38-23.05 168.38-23.05ZM173.88-6.7L173.88-6.7 173.88-9.8 189.13-10.6 189.13-17.1Q189.13-19.9 188.05-21.75 186.98-23.6 185-24.55 183.03-25.5 180.33-25.5L180.33-25.5Q177.68-25.5 175.58-24.55 173.48-23.6 172.28-21.7 171.08-19.8 171.08-16.95L171.08-16.95 171.08-6.7Q171.08-4.6 171.7-3.2 172.33-1.8 173.48-0.95 174.63-0.1 176.23 0.25 177.83 0.6 179.73 0.6L179.73 0.6Q181.63 0.6 183.83-0.03 186.03-0.65 187.88-1.75L187.88-1.75 186.78-3.9Q184.93-2.95 183.13-2.38 181.33-1.8 179.48-1.8L179.48-1.8Q178.28-1.8 177.25-2.08 176.23-2.35 175.48-2.93 174.73-3.5 174.3-4.42 173.88-5.35 173.88-6.7ZM186.33-17.45L186.33-17.45 186.33-13.1 173.88-12.55 173.88-16.9Q173.88-18.9 174.65-20.3 175.43-21.7 176.88-22.43 178.33-23.15 180.28-23.15L180.28-23.15Q182.03-23.15 183.38-22.45 184.73-21.75 185.53-20.48 186.33-19.2 186.33-17.45ZM209.33-17.5L209.33-17.5Q208.18-18.2 206.75-18.8 205.33-19.4 203.78-19.78 202.23-20.15 200.58-20.15L200.58-20.15Q199.08-20.15 197.7-19.75 196.33-19.35 195.23-18.48 194.13-17.6 193.5-16.15 192.88-14.7 192.88-12.6L192.88-12.6 192.88-8.45Q192.88-5.7 193.75-3.9 194.63-2.1 196.15-1.13 197.68-0.15 199.75 0.2 201.83 0.55 204.23 0.5L204.23 0.5Q204.98 0.5 206 0.45 207.03 0.4 208.1 0.33 209.18 0.25 210.1 0.18 211.03 0.1 211.6 0.05 212.18 0 212.13 0L212.13 0 212.13-14.4Q212.13-17.5 211.63-19.63 211.13-21.75 209.95-23.03 208.78-24.3 206.78-24.88 204.78-25.45 201.73-25.45L201.73-25.45 201.63-23.3Q203.13-23.3 204.53-23.08 205.93-22.85 207-22.25 208.08-21.65 208.7-20.5 209.33-19.35 209.33-17.5ZM209.33-15.15L209.33-15.15 209.33-2.3Q209.33-2.3 209.1-2.27 208.88-2.25 208.43-2.23 207.98-2.2 207.33-2.13 206.68-2.05 205.85-2 205.03-1.95 204.03-1.9L204.03-1.9Q201.53-1.8 199.88-2.18 198.23-2.55 197.3-3.43 196.38-4.3 196-5.65 195.63-7 195.63-8.8L195.63-8.8 195.63-12.5Q195.63-14.2 196.1-15.25 196.58-16.3 197.33-16.82 198.08-17.35 198.88-17.55 199.68-17.75 200.33-17.75L200.33-17.75Q201.93-17.75 203.48-17.4 205.03-17.05 206.53-16.45 208.03-15.85 209.33-15.15ZM234.67 0L223.77-17.6 231.17-24.1 229.17-26 219.17-16.75 219.17-35 216.32-35 216.32 0 219.17 0 219.17-13.65 221.77-15.85 231.32 0 234.67 0Z"
                                 opacity="1"
                                 transform="matrix(1,0,0,1,0,0)"
                                 fill="#cdedfe"
                                 class="wordmark-text-0"
                                 data-fill-palette-color="primary"
                                 id="text-0" /></svg></g></svg></g><g
                         transform="matrix(1,0,0,1,0,95.78307517126528)"
                         id="g341"><svg
                           viewBox="0 0 232.209792 20.18949312421978"
                           height="20.18949312421978"
                           width="232.209792"
                           version="1.1"
                           id="svg339"><g
                             transform="matrix(1,0,0,1,0,0)"
                             id="g337"><svg
                               width="232.209792"
                               viewBox="0.81 -36.84 555.36 48.290000000000006"
                               height="20.18949312421978"
                               data-palette-color="#cdedfe"
                               version="1.1"
                               id="svg335"><path
                                 d="M29.15-33.54L29.15-25.56 26.2-25.56 25.49-30.25Q25.32-31.1 24.66-31.1L24.66-31.1 17.5-31.1 17.5-3.44Q17.5-3.08 17.76-2.73 18.02-2.39 18.55-2.34L18.55-2.34 21.75-2.15 21.75 0 8.2 0 8.2-2.15 11.4-2.34Q11.94-2.39 12.19-2.73 12.45-3.08 12.45-3.44L12.45-3.44 12.45-31.1 5.25-31.1Q4.52-31.1 4.39-30.25L4.39-30.25 3.71-25.56 0.81-25.56 0.81-33.54 29.15-33.54ZM49-23.95L49-18.99 47.04-18.99Q46.58-19.56 45.93-19.96 45.29-20.36 44.36-20.36L44.36-20.36Q43.16-20.36 41.9-19.53 40.65-18.7 39.35-17.26L39.35-17.26 39.35-3.2Q39.35-2.15 40.4-2.1L40.4-2.1 43.7-1.95 43.7 0 31.2 0 31.2-1.9 33.66-2.1Q34.1-2.15 34.41-2.44 34.71-2.73 34.71-3.2L34.71-3.2 34.71-20.56 31.1-20.56 31.1-22.19 37.3-24.1 39.35-24.1 39.35-19.65Q40.09-20.46 41.18-21.66 42.28-22.85 43.53-23.78 44.77-24.71 45.94-24.71L45.94-24.71Q46.73-24.71 47.63-24.46 48.53-24.22 49-23.95L49-23.95ZM74.12-1.95L74.12 0 66.72 0 66.06-2.95Q66.06-2.95 65.31-2.42 64.57-1.88 63.35-1.17 62.13-0.46 60.65 0.07 59.17 0.61 57.71 0.61L57.71 0.61Q55 0.61 53.11-1.2 51.22-3 51.22-6.15L51.22-6.15Q51.22-7.54 51.72-8.74 52.22-9.94 53.72-11.02 55.22-12.11 58.19-13.15 61.15-14.18 66.06-15.26L66.06-15.26 66.06-17.41Q66.06-22.34 61.4-22.34L61.4-22.34Q60.1-22.34 59.16-22.09 58.22-21.85 57.86-21.7L57.86-21.7 57.86-17.36 54.22-17.36Q53.54-17.36 52.95-17.61 52.36-17.87 52.36-18.8L52.36-18.8Q52.36-20.85 53.93-22.16 55.49-23.46 57.89-24.08 60.3-24.71 62.76-24.71L62.76-24.71Q65.86-24.71 67.57-23.74 69.28-22.78 69.97-21.08 70.65-19.38 70.65-17.21L70.65-17.21 70.65-3.2Q70.65-2.73 70.95-2.44 71.26-2.15 71.7-2.1L71.7-2.1 74.12-1.95ZM66.06-4.71L66.06-4.71 66.06-13.35Q62.69-12.52 60.7-11.68 58.71-10.84 57.73-10 56.76-9.16 56.45-8.29 56.15-7.42 56.15-6.49L56.15-6.49Q56.15-4.96 57.14-3.65 58.12-2.34 59.91-2.34L59.91-2.34Q60.91-2.34 61.98-2.7 63.06-3.05 63.98-3.53 64.91-4 65.49-4.36 66.06-4.71 66.06-4.71ZM96.55-4.71L96.55-4.71 96.55-1.86Q94.87-0.95 92.75-0.17 90.64 0.61 88.1 0.61L88.1 0.61Q84.61 0.61 82.04-1.03 79.46-2.66 78.06-5.48 76.65-8.3 76.65-11.89L76.65-11.89Q76.65-16.09 78.33-18.95 80-21.8 82.74-23.25 85.49-24.71 88.69-24.71L88.69-24.71Q91.98-24.71 94.22-23.43 96.45-22.14 96.45-19.7L96.45-19.7Q96.45-18.24 95.54-17.49 94.62-16.75 93.5-16.75L93.5-16.75Q92.67-16.75 92.06-17.03 91.45-17.31 90.98-17.6L90.98-17.6 90.98-21.95Q89.84-22.61 88.88-22.61L88.88-22.61Q86.66-22.61 85.06-21.3 83.46-20 82.61-17.72 81.76-15.45 81.76-12.55L81.76-12.55Q81.76-9.79 82.68-7.51 83.61-5.22 85.45-3.88 87.3-2.54 90.03-2.54L90.03-2.54Q91.76-2.54 93.35-3.1 94.94-3.66 96.55-4.71ZM124.43-1.95L124.43 0 116.42 0 116.42-1.95 110.17-11.35 107.39-11.35 107.39-3.2Q107.39-2.17 108.44-2.1L108.44-2.1 110.59-1.95 110.59 0 99.23 0 99.23-1.95 101.67-2.1Q102.72-2.17 102.72-3.2L102.72-3.2 102.72-33.25 98.94-33.25 98.94-34.91 105.34-36.84 107.39-36.84 107.39-12.79 108.39-12.79 115.74-21.09Q115.83-21.22 115.83-21.41L115.83-21.41Q115.83-21.9 115.32-21.95L115.32-21.95 113.27-22.14 113.27-24.1 122.99-24.1 122.99-22.14 119.79-21.8 113.17-14.75 121.79-2.25 124.43-1.95ZM173.45-24.1L173.45-22.14 170.83-21.85 161.24 1.54Q160.92 2.34 160.25 3.85 159.58 5.35 158.66 6.92 157.75 8.5 156.7 9.55L156.7 9.55Q155.8 10.45 154.71 10.95 153.62 11.45 152.35 11.45L152.35 11.45Q150.57 11.45 149.63 10.58 148.69 9.72 148.69 8.59L148.69 8.59Q148.69 6.93 150.3 5.59L150.3 5.59 154.99 7.74Q155.82 6.91 156.65 5.49 157.48 4.08 158.15 2.56 158.82 1.05 159.19-0.05L159.19-0.05 150.69-21.85 147.93-22.14 147.93-24.1 158.99-24.1 158.99-22.14 156.6-22Q155.8-21.92 155.8-21.19L155.8-21.19Q155.8-21 155.84-20.9L155.84-20.9 161.65-6.15 167.59-20.9Q167.66-21.04 167.66-21.22L167.66-21.22Q167.66-21.95 166.9-22L166.9-22 164.54-22.14 164.54-24.1 173.45-24.1ZM199.42-12.01L199.42-12.01Q199.42-8.47 197.96-5.6 196.49-2.73 193.82-1.06 191.14 0.61 187.48 0.61L187.48 0.61Q183.84 0.61 181.18-1.05 178.52-2.71 177.08-5.57 175.64-8.42 175.64-12.01L175.64-12.01Q175.64-15.58 177.09-18.46 178.55-21.34 181.24-23.02 183.94-24.71 187.63-24.71L187.63-24.71Q191.36-24.71 194-23 196.64-21.29 198.03-18.41 199.42-15.53 199.42-12.01ZM194.22-12.06L194.22-12.06Q194.22-14.79 193.5-17.16 192.78-19.53 191.3-21 189.83-22.46 187.58-22.46L187.58-22.46Q185.26-22.46 183.78-21 182.31-19.53 181.6-17.16 180.89-14.79 180.89-12.06L180.89-12.06Q180.89-9.35 181.61-6.97 182.33-4.59 183.81-3.13 185.29-1.66 187.53-1.66L187.53-1.66Q189.83-1.66 191.3-3.13 192.78-4.59 193.5-6.96 194.22-9.33 194.22-12.06ZM228.52-1.95L228.52 0 220.59 0 220.59-2.86Q219.73-2.2 218.41-1.39 217.09-0.59 215.58 0.01 214.07 0.61 212.58 0.61L212.58 0.61Q209.36 0.61 207.51-1.33 205.67-3.27 205.67-7.5L205.67-7.5 205.67-21.04 202.18-21.04 202.18-22.75 208.33-24.71 210.33-24.71 210.33-8.45Q210.33-5.79 211.42-4.3 212.5-2.81 215.17-2.81L215.17-2.81Q216.7-2.81 218.19-3.33 219.68-3.86 220.59-4.3L220.59-4.3 220.59-21.04 217.07-21.04 217.07-22.75 223.17-24.71 225.22-24.71 225.22-3.2Q225.22-2.73 225.55-2.44 225.88-2.15 226.32-2.1L226.32-2.1 228.52-1.95ZM248.61-23.95L248.61-18.99 246.66-18.99Q246.19-19.56 245.55-19.96 244.9-20.36 243.97-20.36L243.97-20.36Q242.78-20.36 241.52-19.53 240.26-18.7 238.97-17.26L238.97-17.26 238.97-3.2Q238.97-2.15 240.02-2.1L240.02-2.1 243.31-1.95 243.31 0 230.81 0 230.81-1.9 233.28-2.1Q233.72-2.15 234.02-2.44 234.33-2.73 234.33-3.2L234.33-3.2 234.33-20.56 230.71-20.56 230.71-22.19 236.92-24.1 238.97-24.1 238.97-19.65Q239.7-20.46 240.8-21.66 241.9-22.85 243.14-23.78 244.39-24.71 245.56-24.71L245.56-24.71Q246.34-24.71 247.24-24.46 248.15-24.22 248.61-23.95L248.61-23.95ZM293.23-4.71L293.23-4.71 293.23-1.86Q291.55-0.95 289.44-0.17 287.33 0.61 284.79 0.61L284.79 0.61Q281.3 0.61 278.72-1.03 276.14-2.66 274.74-5.48 273.34-8.3 273.34-11.89L273.34-11.89Q273.34-16.09 275.01-18.95 276.68-21.8 279.43-23.25 282.17-24.71 285.37-24.71L285.37-24.71Q288.67-24.71 290.9-23.43 293.14-22.14 293.14-19.7L293.14-19.7Q293.14-18.24 292.22-17.49 291.31-16.75 290.18-16.75L290.18-16.75Q289.35-16.75 288.74-17.03 288.13-17.31 287.67-17.6L287.67-17.6 287.67-21.95Q286.52-22.61 285.57-22.61L285.57-22.61Q283.35-22.61 281.75-21.3 280.15-20 279.29-17.72 278.44-15.45 278.44-12.55L278.44-12.55Q278.44-9.79 279.37-7.51 280.29-5.22 282.14-3.88 283.98-2.54 286.72-2.54L286.72-2.54Q288.45-2.54 290.04-3.1 291.62-3.66 293.23-4.71ZM320.4-12.01L320.4-12.01Q320.4-8.47 318.94-5.6 317.47-2.73 314.8-1.06 312.13 0.61 308.47 0.61L308.47 0.61Q304.83 0.61 302.17-1.05 299.51-2.71 298.07-5.57 296.63-8.42 296.63-12.01L296.63-12.01Q296.63-15.58 298.08-18.46 299.53-21.34 302.23-23.02 304.93-24.71 308.61-24.71L308.61-24.71Q312.35-24.71 314.98-23 317.62-21.29 319.01-18.41 320.4-15.53 320.4-12.01ZM315.2-12.06L315.2-12.06Q315.2-14.79 314.48-17.16 313.76-19.53 312.29-21 310.81-22.46 308.56-22.46L308.56-22.46Q306.24-22.46 304.77-21 303.29-19.53 302.58-17.16 301.87-14.79 301.87-12.06L301.87-12.06Q301.87-9.35 302.59-6.97 303.31-4.59 304.79-3.13 306.27-1.66 308.51-1.66L308.51-1.66Q310.81-1.66 312.29-3.13 313.76-4.59 314.48-6.96 315.2-9.33 315.2-12.06ZM335.61-1.95L335.61 0 323.45 0 323.45-1.95 326.11-2.1Q326.46-2.1 326.84-2.47 327.21-2.83 327.21-3.15L327.21-3.15 327.21-33.25 323.41-33.25 323.41-34.91 329.8-36.84 331.85-36.84 331.85-3.15Q331.85-2.83 332.22-2.47 332.58-2.1 332.9-2.1L332.9-2.1 335.61-1.95ZM363.86-1.95L363.86 0 356 0 356-2.66Q354.29-1.34 352.36-0.37 350.43 0.61 348.26 0.61L348.26 0.61Q345.74 0.61 343.92-0.45 342.1-1.51 340.94-3.27 339.78-5.03 339.22-7.15 338.66-9.28 338.66-11.4L338.66-11.4Q338.66-14.79 340.05-17.83 341.44-20.87 344.28-22.79 347.11-24.71 351.41-24.71L351.41-24.71Q352.6-24.71 354.01-24.48 355.41-24.24 356-24.1L356-24.1 356-33.25 352.21-33.25 352.21-34.91 358.66-36.84 360.66-36.84 360.66-3.2Q360.66-2.17 361.71-2.1L361.71-2.1 363.86-1.95ZM356-4.54L356-4.54 356-21.56Q355.36-21.78 354.1-22.03 352.85-22.29 351.75-22.29L351.75-22.29Q348.04-22.29 345.81-19.54 343.59-16.8 343.59-12.26L343.59-12.26Q343.59-8.18 345.5-5.49 347.4-2.81 350.84-2.81L350.84-2.81Q352.36-2.81 353.69-3.38 355.02-3.96 356-4.54ZM413.9-12.4L413.9-12.4Q413.9-8.47 412.39-5.54 410.87-2.61 408.04-1 405.21 0.61 401.25 0.61L401.25 0.61Q400.35 0.61 399.31 0.49 398.28 0.37 397.54 0.26 396.81 0.15 396.81 0.15L396.81 0.15 396.81 7.59Q396.81 8.06 397.13 8.33 397.45 8.59 397.91 8.64L397.91 8.64 400.86 8.96 400.86 10.89 388.71 10.89 388.71 8.96 391.1 8.64Q392.15 8.57 392.15 7.59L392.15 7.59 392.15-20.56 388.71-20.56 388.71-22.19 394.86-24.1 396.81-24.1 396.81-21.61Q396.81-21.61 397.43-22.07 398.06-22.53 399.12-23.16 400.18-23.78 401.53-24.24 402.89-24.71 404.35-24.71L404.35-24.71Q406.94-24.71 409.1-23.18 411.26-21.66 412.58-18.9 413.9-16.14 413.9-12.4ZM408.9-11.69L408.9-11.69Q408.9-14.28 408.1-16.43 407.31-18.58 405.76-19.89 404.21-21.19 401.91-21.19L401.91-21.19Q400.67-21.19 399.5-20.83 398.32-20.46 397.57-20.08 396.81-19.7 396.81-19.7L396.81-19.7 396.81-2.49Q396.81-2.49 398.07-2.1 399.33-1.71 400.86-1.71L400.86-1.71Q403.62-1.71 405.39-3.13 407.16-4.54 408.03-6.82 408.9-9.11 408.9-11.69ZM429.11-1.95L429.11 0 416.95 0 416.95-1.95 419.61-2.1Q419.95-2.1 420.33-2.47 420.71-2.83 420.71-3.15L420.71-3.15 420.71-33.25 416.9-33.25 416.9-34.91 423.3-36.84 425.35-36.84 425.35-3.15Q425.35-2.83 425.71-2.47 426.08-2.1 426.4-2.1L426.4-2.1 429.11-1.95ZM457.84-1.95L457.84 0 449.91 0 449.91-2.86Q449.05-2.2 447.73-1.39 446.41-0.59 444.9 0.01 443.39 0.61 441.9 0.61L441.9 0.61Q438.68 0.61 436.83-1.33 434.99-3.27 434.99-7.5L434.99-7.5 434.99-21.04 431.5-21.04 431.5-22.75 437.65-24.71 439.65-24.71 439.65-8.45Q439.65-5.79 440.74-4.3 441.83-2.81 444.49-2.81L444.49-2.81Q446.02-2.81 447.51-3.33 449-3.86 449.91-4.3L449.91-4.3 449.91-21.04 446.39-21.04 446.39-22.75 452.49-24.71 454.54-24.71 454.54-3.2Q454.54-2.73 454.87-2.44 455.2-2.15 455.64-2.1L455.64-2.1 457.84-1.95ZM486.23-1.95L486.23 0 475.2 0 475.2-1.95 477.3-2.1Q477.74-2.15 478.04-2.44 478.35-2.73 478.35-3.2L478.35-3.2 478.35-16.21Q478.35-18.58 477.25-19.81 476.15-21.04 473.54-21.04L473.54-21.04Q472.12-21.04 470.72-20.64 469.31-20.24 468.04-19.6L468.04-19.6 468.04-3.2Q468.04-2.17 469.09-2.1L469.09-2.1 471.19-1.95 471.19 0 459.89 0 459.89-1.95 462.33-2.1Q463.38-2.17 463.38-3.2L463.38-3.2 463.38-20.56 459.89-20.56 459.89-22.19 465.99-24.1 468.04-24.1 468.04-21.61Q470.14-22.8 472.35-23.75 474.56-24.71 476.3-24.71L476.3-24.71Q479.57-24.71 481.28-22.67 482.98-20.63 482.98-16.99L482.98-16.99 482.98-3.2Q482.98-2.73 483.29-2.44 483.6-2.15 484.03-2.1L484.03-2.1 486.23-1.95ZM512.62-23.19L512.62-20.75 507.64-20.75Q508.2-19.85 508.59-18.77 508.98-17.7 508.98-16.26L508.98-16.26Q508.98-13.77 507.62-12 506.25-10.23 504.01-9.28 501.78-8.33 499.17-8.33L499.17-8.33Q498.92-8.33 498.68-8.33 498.44-8.33 498.19-8.35L498.19-8.35Q497.87-7.84 497.76-7.25 497.66-6.67 497.66-6.15L497.66-6.15Q497.66-5.69 497.7-5.37 497.75-5.05 497.78-5L497.78-5 498.49-4.93Q500.24-4.76 502.43-4.44 504.61-4.13 506.65-3.42 508.69-2.71 510.01-1.42 511.33-0.12 511.33 2L511.33 2Q511.33 4.37 509.59 6.53 507.86 8.69 504.92 10.07 501.98 11.45 498.34 11.45L498.34 11.45Q493.87 11.45 491.41 9.41 488.94 7.37 488.94 4.35L488.94 4.35Q488.94 2.17 490.23 0.48 491.53-1.22 494.24-1.71L494.24-1.71Q493.97-2.49 493.85-2.83 493.72-3.17 493.72-4L493.72-4Q493.72-4.98 494.32-6.16 494.92-7.35 496.24-8.69L496.24-8.69Q493.75-9.25 491.89-11.22 490.04-13.18 490.04-16.21L490.04-16.21Q490.04-20.14 492.81-22.42 495.58-24.71 500.07-24.71L500.07-24.71Q501.85-24.71 503.38-24.18 504.91-23.66 505.88-23.19L505.88-23.19 512.62-23.19ZM504.22-16.55L504.22-16.55Q504.22-18.14 503.69-19.53 503.15-20.92 502.12-21.79 501.1-22.66 499.58-22.66L499.58-22.66Q497.48-22.66 496.15-21.03 494.82-19.41 494.82-16.5L494.82-16.5Q494.82-13.99 496.02-12.19 497.22-10.4 499.58-10.4L499.58-10.4Q501.83-10.4 503.03-12.21 504.22-14.01 504.22-16.55ZM507.03 3.34L507.03 3.34Q507.03 1.78 505.94 0.93 504.86 0.07 503.25-0.34 501.63-0.76 500-0.94 498.36-1.12 497.24-1.34L497.24-1.34Q495.07-0.56 494.25 0.78 493.43 2.12 493.43 3.34L493.43 3.34Q493.43 4.54 494.13 5.9 494.82 7.25 496.28 8.2 497.73 9.16 499.97 9.16L499.97 9.16Q502.37 9.16 503.93 8.2 505.49 7.25 506.26 5.9 507.03 4.54 507.03 3.34ZM536.28-5.54L536.28-2.49Q534.18-1.2 531.75-0.29 529.32 0.61 526.78 0.61L526.78 0.61Q523.75 0.61 521.1-0.74 518.45-2.1 516.82-4.86 515.18-7.62 515.18-11.79L515.18-11.79Q515.18-15.7 516.7-18.6 518.21-21.51 520.87-23.11 523.53-24.71 526.93-24.71L526.93-24.71Q531.59-24.71 533.93-21.81 536.28-18.92 536.28-14.45L536.28-14.45Q536.28-14.21 536.28-13.81 536.28-13.4 536.23-13.06L536.23-13.06 520.02-13.06Q520.02-11.16 520.42-9.27 520.82-7.37 521.77-5.83 522.73-4.3 524.34-3.37 525.95-2.44 528.37-2.44L528.37-2.44Q530.51-2.44 532.55-3.43 534.59-4.42 536.28-5.54L536.28-5.54ZM520.28-15.31L531.27-15.31 531.27-16.41Q531.27-18.87 530.09-20.56 528.9-22.24 526.41-22.24L526.41-22.24Q523.95-22.24 522.21-20.39 520.48-18.53 520.28-15.31L520.28-15.31ZM556.17-7.25L556.17-7.25Q556.17-3.56 553.63-1.48 551.09 0.61 546.62 0.61L546.62 0.61Q544.33 0.61 542.39 0.13 540.45-0.34 539.69-0.66L539.69-0.66 539.69-7.3 542.23-7.3 542.84-3.05Q543.6-2.56 544.71-2.11 545.82-1.66 547.28-1.66L547.28-1.66Q549.43-1.66 550.6-2.86 551.78-4.05 551.78-5.54L551.78-5.54Q551.78-7.52 550.36-8.53 548.94-9.55 546.33-10.79L546.33-10.79 545.67-11.11Q542.94-12.4 541.49-13.81 540.03-15.21 540.03-17.46L540.03-17.46Q540.03-20.8 542.38-22.75 544.72-24.71 549.04-24.71L549.04-24.71Q551.24-24.71 552.96-24.3 554.68-23.9 555.44-23.56L555.44-23.56 555.44-17.65 552.83-17.65 552.44-21.14Q551.9-21.56 550.85-21.92 549.8-22.29 548.63-22.29L548.63-22.29Q546.58-22.29 545.57-21.35 544.57-20.41 544.57-18.95L544.57-18.95Q544.57-17.26 545.78-16.27 546.99-15.28 550.16-13.84L550.16-13.84Q552.78-12.65 554.47-11.17 556.17-9.69 556.17-7.25Z"
                                 opacity="1"
                                 transform="matrix(1,0,0,1,0,0)"
                                 fill="#cdedfe"
                                 class="slogan-text-1"
                                 data-fill-palette-color="secondary"
                                 id="text-1" /></svg></g></svg></g></svg></g></svg></g><g
                 id="g379"><svg
                   viewBox="0 0 226.066038408449 226.066038408449"
                   height="226.066038408449"
                   width="226.066038408449"
                   version="1.1"
                   id="svg377"><g
                     id="g351"><svg
                       version="1.1"
                       id="svg349" /></g><g
                     id="icon-0"><svg
                       viewBox="0 0 226.066038408449 226.066038408449"
                       height="226.066038408449"
                       width="226.066038408449"
                       version="1.1"
                       id="svg374"><g
                         id="g355"><path
                           d="M0 113.033c0-62.426 50.607-113.033 113.033-113.033 62.426 0 113.033 50.607 113.033 113.033 0 62.426-50.607 113.033-113.033 113.033-62.426 0-113.033-50.607-113.033-113.033zM113.033 219.078c58.567 0 106.045-47.478 106.045-106.045 0-58.567-47.478-106.045-106.045-106.045-58.567 0-106.045 47.478-106.045 106.045 0 58.567 47.478 106.045 106.045 106.045z"
                           data-fill-palette-color="accent"
                           fill="#e9fc12"
                           stroke="transparent"
                           id="path353" /></g><g
                         transform="matrix(1,0,0,1,48.78238734073234,60.91861780383642)"
                         id="g372"><svg
                           viewBox="0 0 128.50126372698432 104.22880280077617"
                           height="104.22880280077617"
                           width="128.50126372698432"
                           version="1.1"
                           id="svg370"><g
                             id="g368"><svg
                               version="1.1"
                               x="0"
                               y="0"
                               viewBox="5 13.5 90 73"
                               enable-background="new 0 0 100 100"
                               xml:space="preserve"
                               height="104.22880280077617"
                               width="128.50126372698432"
                               class="icon-cg-0"
                               data-fill-palette-color="accent"
                               id="cg-0"><g
                                 fill="#e9fc12"
                                 data-fill-palette-color="accent"
                                 id="g365"><path
                                   d="M30 83.5h-5c-0.829 0-1.5 0.672-1.5 1.5s0.671 1.5 1.5 1.5h5c0.829 0 1.5-0.672 1.5-1.5S30.829 83.5 30 83.5z"
                                   fill="#e9fc12"
                                   data-fill-palette-color="accent"
                                   id="path357" /><path
                                   d="M75 83.5h-5c-0.828 0-1.5 0.672-1.5 1.5s0.672 1.5 1.5 1.5h5c0.828 0 1.5-0.672 1.5-1.5S75.828 83.5 75 83.5z"
                                   fill="#e9fc12"
                                   data-fill-palette-color="accent"
                                   id="path359" /><path
                                   d="M92.5 55h-6V13.5H69.379L60 22.879l-3.939-3.939c-0.586-0.586-1.535-0.586-2.121 0-0.586 0.585-0.586 1.536 0 2.121l10 10C64.232 31.354 64.616 31.5 65 31.5s0.768-0.146 1.061-0.439c0.586-0.585 0.586-1.536 0-2.121L62.121 25l8.5-8.5H83.5V55h-8.936C74.842 54.217 75 53.378 75 52.5c0-4.142-3.357-7.5-7.5-7.5-3.28 0-6.062 2.109-7.08 5.042C60.279 50.03 60.144 50 60 50c0-5.523-4.478-10-10-10-5.523 0-10 4.477-10 10-2.761 0-5 2.238-5 5 0-2.762-2.239-5-5-5s-5 2.238-5 5H15 7.5C6.119 55 5 56.119 5 57.5S6.119 60 7.5 60H15v8c0 6.627 5.373 12 12 12h46c6.627 0 12-5.373 12-12v-8h7.5c1.381 0 2.5-1.119 2.5-2.5S93.881 55 92.5 55z"
                                   fill="#e9fc12"
                                   data-fill-palette-color="accent"
                                   id="path361" /><circle
                                   cx="35"
                                   cy="45"
                                   r="5.0"
                                   fill="#e9fc12"
                                   data-fill-palette-color="accent"
                                   id="circle363" /></g></svg></g></svg></g></svg></g></svg></g></svg></g><defs
             id="defs385" /></svg><rect
           width="395.52"
           height="135.8512882045063"
           fill="none"
           stroke="none"
           visibility="hidden"
           id="rect389" /></g></svg></g><path
     d="m 351.82545,668.8604 v 4.2563 l -3.19793,-1.84886 -1.62347,2.80269 4.8214,2.79288 v 6.28155 l -5.41591,-3.12934 -0.01,-5.59558 -3.2404,0.007 0.007,3.71731 -3.69772,-2.13631 -1.6202,2.80595 3.68792,2.12978 -3.2012,1.84232 1.61366,2.80922 4.8312,-2.77982 5.43552,3.13914 -5.41591,3.12608 -4.85081,-2.78962 -1.61366,2.80922 3.2208,1.85539 -3.69772,2.13305 1.6202,2.80595 3.68792,-2.12978 -0.007,3.69445 3.2404,0.007 0.01,-5.57271 5.43551,-3.13587 v 6.25215 l -4.841,2.80595 1.62347,2.80269 3.21753,-1.86193 v 4.26936 h 3.2404 v -4.2563 l 3.19794,1.84885 1.62347,-2.80269 -4.82141,-2.79289 v -6.28154 l 5.41592,3.12934 0.01,5.59557 3.24041,-0.007 -0.007,-3.71732 3.69772,2.13632 1.6202,-2.80596 -3.68792,-2.12978 3.2012,-1.84233 -1.61367,-2.80921 -4.82793,2.77981 -5.43878,-3.13913 5.41918,-3.12934 4.84753,2.79288 1.61367,-2.80921 -3.2208,-1.85539 3.69772,-2.13306 -1.62021,-2.80595 -3.68791,2.12978 0.007,-3.69445 -3.24041,-0.007 -0.01,5.57271 -5.43551,3.13588 v -6.25213 l 4.841,-2.80596 -1.62347,-2.80268 -3.21753,1.86192 v -4.26936 z"
     id="rect2991"
     style="fill:#e9fc12;fill-opacity:1;stroke:none;stroke-width:0.999998" /></svg>
